<svg width="151" height="32" viewBox="0 0 151 32" fill="none" xmlns="http://www.w3.org/2000/svg">
<path d="M20.8811 16.9539C20.9117 14.638 22.1856 12.4467 24.2065 11.2337C22.9316 9.4561 20.7962 8.32903 18.5745 8.26117C16.2049 8.01834 13.9077 9.64549 12.7002 9.64549C11.4693 9.64549 9.6102 8.28528 7.60822 8.32549C4.99872 8.4078 2.56602 9.85626 1.29644 12.0836C-1.43264 16.6966 0.603007 23.4762 3.21724 27.205C4.5252 29.0309 6.05383 31.0705 8.05401 30.9981C10.0113 30.9189 10.7423 29.7796 13.1049 29.7796C15.4456 29.7796 16.1315 30.9981 18.1722 30.9521C20.2725 30.9189 21.5958 29.1181 22.8578 27.275C23.7976 25.9739 24.5207 24.536 25.0005 23.0145C22.5323 21.9953 20.884 19.5703 20.8811 16.9539Z" fill="white"/>
<path d="M17.0264 5.80892C18.1716 4.46678 18.7358 2.74169 18.5992 1C16.8496 1.1794 15.2335 1.99575 14.0729 3.28639C12.938 4.54742 12.3473 6.24215 12.459 7.91728C14.2092 7.93487 15.9297 7.14065 17.0264 5.80892Z" fill="white"/>
<path d="M37.8843 9V1.9541H40.4282C42.5181 1.9541 43.7437 3.24316 43.7437 5.45508V5.46484C43.7437 7.70117 42.5278 9 40.4282 9H37.8843ZM38.978 8.05762H40.3062C41.7808 8.05762 42.6304 7.11523 42.6304 5.47949V5.46973C42.6304 3.84863 41.7661 2.89648 40.3062 2.89648H38.978V8.05762ZM48.131 9.1709C46.0802 9.1709 44.8399 7.74023 44.8399 5.47949V5.46973C44.8399 3.2041 46.1095 1.7832 48.131 1.7832C50.1573 1.7832 51.4171 3.20898 51.4171 5.46973V5.47949C51.4171 7.73535 50.1671 9.1709 48.131 9.1709ZM48.131 8.2041C49.4688 8.2041 50.2989 7.12988 50.2989 5.47949V5.46973C50.2989 3.80469 49.464 2.75 48.131 2.75C46.7979 2.75 45.9581 3.80469 45.9581 5.46973V5.47949C45.9581 7.12988 46.7735 8.2041 48.131 8.2041ZM53.9782 9L52.0788 1.9541H53.2165L54.5104 7.43262H54.5788L56.0485 1.9541H57.0642L58.5437 7.43262H58.612L59.9011 1.9541H61.0388L59.1345 9H58.1042L56.5905 3.73145H56.5222L55.0134 9H53.9782ZM62.262 9V1.9541H63.2483L66.8714 7.08105H66.9446V1.9541H68.0091V9H67.0228L63.4046 3.88281H63.3265V9H62.262ZM69.6815 9V1.9541H70.7753V8.05762H74.0761V9H69.6815ZM78.1021 9.1709C76.0513 9.1709 74.811 7.74023 74.811 5.47949V5.46973C74.811 3.2041 76.0806 1.7832 78.1021 1.7832C80.1284 1.7832 81.3882 3.20898 81.3882 5.46973V5.47949C81.3882 7.73535 80.1382 9.1709 78.1021 9.1709ZM78.1021 8.2041C79.4399 8.2041 80.27 7.12988 80.27 5.47949V5.46973C80.27 3.80469 79.4351 2.75 78.1021 2.75C76.769 2.75 75.9292 3.80469 75.9292 5.46973V5.47949C75.9292 7.12988 76.7446 8.2041 78.1021 8.2041ZM81.8985 9L84.4425 1.9541H85.6241L88.1681 9H87.0157L86.381 7.0957H83.6856L83.046 9H81.8985ZM84.9894 3.18945L83.9786 6.2168H86.088L85.0724 3.18945H84.9894ZM89.2937 9V1.9541H91.8376C93.9274 1.9541 95.153 3.24316 95.153 5.45508V5.46484C95.153 7.70117 93.9372 9 91.8376 9H89.2937ZM90.3874 8.05762H91.7155C93.1901 8.05762 94.0397 7.11523 94.0397 5.47949V5.46973C94.0397 3.84863 93.1755 2.89648 91.7155 2.89648H90.3874V8.05762ZM102.175 9.1709C100.124 9.1709 98.8837 7.74023 98.8837 5.47949V5.46973C98.8837 3.2041 100.153 1.7832 102.175 1.7832C104.201 1.7832 105.461 3.20898 105.461 5.46973V5.47949C105.461 7.73535 104.211 9.1709 102.175 9.1709ZM102.175 8.2041C103.513 8.2041 104.343 7.12988 104.343 5.47949V5.46973C104.343 3.80469 103.508 2.75 102.175 2.75C100.842 2.75 100.002 3.80469 100.002 5.46973V5.47949C100.002 7.12988 100.817 8.2041 102.175 8.2041ZM106.845 9V1.9541H107.832L111.455 7.08105H111.528V1.9541H112.592V9H111.606L107.988 3.88281H107.91V9H106.845ZM118.686 9V2.89648H116.469V1.9541H121.992V2.89648H119.78V9H118.686ZM123.235 9V1.9541H124.328V4.93262H127.947V1.9541H129.035V9H127.947V5.87988H124.328V9H123.235ZM130.703 9V1.9541H135.176V2.89648H131.797V4.95703H134.995V5.86523H131.797V8.05762H135.176V9H130.703Z" fill="#F5F7FA"/>
<path d="M37.7036 28L42.5962 13.9082H46.063L50.9653 28H47.8599L46.8149 24.582H41.8442L40.7993 28H37.7036ZM44.2466 16.7207L42.5181 22.375H46.1411L44.4224 16.7207H44.2466ZM52.5747 31.5645V17.248H55.4263V18.9082H55.6021C56.1587 17.7559 57.3013 17.0723 58.8247 17.0723C61.5103 17.0723 63.1899 19.1816 63.1899 22.6094V22.6289C63.1899 26.0859 61.5493 28.166 58.8247 28.166C57.3501 28.166 56.1489 27.4531 55.6021 26.2812H55.4263V31.5645H52.5747ZM57.8481 25.8027C59.3521 25.8027 60.2896 24.6016 60.2896 22.6289V22.6094C60.2896 20.6367 59.3618 19.4355 57.8481 19.4355C56.3442 19.4355 55.397 20.6367 55.397 22.6094V22.6289C55.397 24.6016 56.354 25.8027 57.8481 25.8027ZM65.0239 31.5645V17.248H67.8755V18.9082H68.0513C68.6079 17.7559 69.7505 17.0723 71.2739 17.0723C73.9595 17.0723 75.6392 19.1816 75.6392 22.6094V22.6289C75.6392 26.0859 73.9985 28.166 71.2739 28.166C69.7993 28.166 68.5981 27.4531 68.0513 26.2812H67.8755V31.5645H65.0239ZM70.2974 25.8027C71.8013 25.8027 72.7388 24.6016 72.7388 22.6289V22.6094C72.7388 20.6367 71.811 19.4355 70.2974 19.4355C68.7935 19.4355 67.8462 20.6367 67.8462 22.6094V22.6289C67.8462 24.6016 68.8032 25.8027 70.2974 25.8027ZM77.5708 28V13.1367H80.4224V28H77.5708ZM87.5981 28.2246C84.3267 28.2246 82.3442 26.0859 82.3442 22.6387V22.6289C82.3442 19.2109 84.3462 17.0137 87.481 17.0137C90.6157 17.0137 92.5688 19.1621 92.5688 22.4141V23.3027H85.1665C85.1958 25.0703 86.1431 26.0957 87.6567 26.0957C88.9067 26.0957 89.6001 25.4316 89.7954 25.0215L89.8247 24.9629H92.481L92.4614 25.0605C92.1294 26.4082 90.7427 28.2246 87.5981 28.2246ZM87.5298 19.1523C86.2896 19.1523 85.3716 19.9922 85.1958 21.5156H89.8345C89.6587 19.9531 88.77 19.1523 87.5298 19.1523ZM104.381 28.3613C101.012 28.3613 98.8833 26.75 98.7173 24.25L98.7075 24.0938H101.549L101.559 24.1914C101.667 25.2461 102.809 25.959 104.459 25.959C106.032 25.959 107.116 25.207 107.116 24.123V24.1133C107.116 23.1855 106.422 22.668 104.674 22.3066L103.19 22.0039C100.26 21.4082 99.0005 20.041 99.0005 17.9023V17.8926C99.0005 15.2754 101.247 13.5469 104.372 13.5469C107.663 13.5469 109.596 15.2852 109.782 17.6387L109.792 17.7656H107.018L106.999 17.6484C106.833 16.6426 105.856 15.9395 104.372 15.9395C102.917 15.9492 101.95 16.6133 101.95 17.668V17.6777C101.95 18.5957 102.633 19.1426 104.293 19.4844L105.788 19.7871C108.766 20.4023 110.065 21.5938 110.065 23.791V23.8008C110.065 26.5938 107.897 28.3613 104.381 28.3613ZM116.538 28.0391C113.92 28.0391 112.866 27.1895 112.866 25.0996V19.3965H111.206V17.248H112.866V14.6797H115.747V17.248H117.963V19.3965H115.747V24.4453C115.747 25.4121 116.157 25.8418 117.124 25.8418C117.495 25.8418 117.69 25.8223 117.963 25.793V27.9121C117.612 27.9805 117.084 28.0391 116.538 28.0391ZM124.534 28.2246C121.223 28.2246 119.231 26.125 119.231 22.6289V22.6094C119.231 19.1426 121.252 17.0137 124.534 17.0137C127.815 17.0137 129.836 19.1328 129.836 22.6094V22.6289C129.836 26.1348 127.844 28.2246 124.534 28.2246ZM124.534 25.9883C126.047 25.9883 126.917 24.748 126.917 22.6289V22.6094C126.917 20.5098 126.038 19.25 124.534 19.25C123.02 19.25 122.151 20.5098 122.151 22.6094V22.6289C122.151 24.748 123.01 25.9883 124.534 25.9883ZM131.661 28V17.248H134.512V18.918H134.688C135.03 17.7559 136.006 17.0723 137.403 17.0723C137.784 17.0723 138.184 17.1309 138.467 17.209V19.6992C138.038 19.6016 137.598 19.5332 137.159 19.5332C135.538 19.5332 134.512 20.4609 134.512 21.9844V28H131.661ZM144.344 28.2246C141.073 28.2246 139.09 26.0859 139.09 22.6387V22.6289C139.09 19.2109 141.092 17.0137 144.227 17.0137C147.362 17.0137 149.315 19.1621 149.315 22.4141V23.3027H141.913C141.942 25.0703 142.889 26.0957 144.403 26.0957C145.653 26.0957 146.346 25.4316 146.542 25.0215L146.571 24.9629H149.227L149.208 25.0605C148.875 26.4082 147.489 28.2246 144.344 28.2246ZM144.276 19.1523C143.036 19.1523 142.118 19.9922 141.942 21.5156H146.581C146.405 19.9531 145.516 19.1523 144.276 19.1523Z" fill="#F5F7FA"/>
</svg>
