<svg width="153" height="32" viewBox="0 0 153 32" fill="none" xmlns="http://www.w3.org/2000/svg">
<g filter="url(#filter0_ii_1406_2058)">
<path d="M0.541411 1.46308C0.201129 1.82232 -4.99601e-07 2.37985 -4.99601e-07 3.10183V28.8973C-4.99601e-07 29.6205 0.201129 30.1769 0.541411 30.5361L0.627942 30.6201L15.115 16.1699V15.9996V15.8293L0.627942 1.37793L0.541411 1.46308Z" fill="url(#paint0_linear_1406_2058)"/>
<path d="M19.944 20.9882L15.1157 16.1699V15.9996V15.8293L19.9451 11.0122L20.0539 11.074L25.7755 14.3165C27.4091 15.2426 27.4091 16.7578 25.7755 17.685L20.0539 20.9275L19.944 20.9882Z" fill="url(#paint1_linear_1406_2058)"/>
<g filter="url(#filter1_i_1406_2058)">
<path d="M20.0533 20.9263L15.114 15.9995L0.541505 30.536C1.07941 31.1052 1.96928 31.1752 2.97142 30.6083L20.0533 20.9263Z" fill="url(#paint2_linear_1406_2058)"/>
</g>
<path d="M20.0533 11.0729L2.97142 1.39199C1.96928 0.823965 1.07941 0.895114 0.541505 1.4643L15.1151 16.0008L20.0533 11.0729Z" fill="url(#paint3_linear_1406_2058)"/>
</g>
<path d="M42.853 9.1709C40.856 9.1709 39.5962 7.74512 39.5962 5.47949V5.46973C39.5962 3.2334 40.8706 1.7832 42.8433 1.7832C44.4448 1.7832 45.5825 2.69141 45.8364 4.05371L45.8462 4.10254H44.7524L44.7378 4.05371C44.4839 3.21875 43.8101 2.75 42.8433 2.75C41.5396 2.75 40.7144 3.80469 40.7144 5.46484V5.47461C40.7144 7.15918 41.5444 8.2041 42.8677 8.2041C44.02 8.2041 44.8062 7.47656 44.8159 6.39258V6.23633H43.0044V5.35254H45.895V6.22656C45.895 8.01367 44.6987 9.1709 42.853 9.1709ZM47.3038 9V1.9541H51.7765V2.89648H48.3976V4.95703H51.5958V5.86523H48.3976V8.05762H51.7765V9H47.3038ZM55.0456 9V2.89648H52.8288V1.9541H58.3513V2.89648H56.1394V9H55.0456ZM62.2284 9V1.9541H63.3222V9H62.2284ZM66.7769 9V2.89648H64.5601V1.9541H70.0825V2.89648H67.8706V9H66.7769ZM76.9626 9.1709C74.9118 9.1709 73.6716 7.74023 73.6716 5.47949V5.46973C73.6716 3.2041 74.9411 1.7832 76.9626 1.7832C78.989 1.7832 80.2487 3.20898 80.2487 5.46973V5.47949C80.2487 7.73535 78.9987 9.1709 76.9626 9.1709ZM76.9626 8.2041C78.3005 8.2041 79.1306 7.12988 79.1306 5.47949V5.46973C79.1306 3.80469 78.2956 2.75 76.9626 2.75C75.6296 2.75 74.7897 3.80469 74.7897 5.46973V5.47949C74.7897 7.12988 75.6052 8.2041 76.9626 8.2041ZM81.6331 9V1.9541H82.6194L86.2425 7.08105H86.3157V1.9541H87.3802V9H86.3938L82.7757 3.88281H82.6976V9H81.6331Z" fill="#F5F7FA"/>
<path d="M46.8423 28.3613C42.6528 28.3613 40.0845 25.5391 40.0845 20.9492V20.9297C40.0845 16.4082 42.6724 13.5469 46.7739 13.5469C50.104 13.5469 52.5356 15.4609 52.9556 18.2734L52.9751 18.3711H50.0454L50.0259 18.2734C49.6255 16.877 48.4243 16.0469 46.7739 16.0469C44.4985 16.0469 43.0923 17.9023 43.0923 20.9004V20.9199C43.0923 23.9766 44.5669 25.8613 46.8911 25.8613C48.8247 25.8613 50.1528 24.6797 50.2114 22.9023L50.2212 22.6387H47.1743V20.4902H53.0923V22.2773C53.0923 26.0176 50.6899 28.3613 46.8423 28.3613ZM59.9165 28.2246C56.606 28.2246 54.6138 26.125 54.6138 22.6289V22.6094C54.6138 19.1426 56.6353 17.0137 59.9165 17.0137C63.1978 17.0137 65.2192 19.1328 65.2192 22.6094V22.6289C65.2192 26.1348 63.2271 28.2246 59.9165 28.2246ZM59.9165 25.9883C61.4302 25.9883 62.2993 24.748 62.2993 22.6289V22.6094C62.2993 20.5098 61.4204 19.25 59.9165 19.25C58.4028 19.25 57.5337 20.5098 57.5337 22.6094V22.6289C57.5337 24.748 58.3931 25.9883 59.9165 25.9883ZM71.8188 28.2246C68.5083 28.2246 66.5161 26.125 66.5161 22.6289V22.6094C66.5161 19.1426 68.5376 17.0137 71.8188 17.0137C75.1001 17.0137 77.1216 19.1328 77.1216 22.6094V22.6289C77.1216 26.1348 75.1294 28.2246 71.8188 28.2246ZM71.8188 25.9883C73.3325 25.9883 74.2017 24.748 74.2017 22.6289V22.6094C74.2017 20.5098 73.3228 19.25 71.8188 19.25C70.3052 19.25 69.436 20.5098 69.436 22.6094V22.6289C69.436 24.748 70.2954 25.9883 71.8188 25.9883ZM83.6919 31.7793C80.7134 31.7793 78.9849 30.5293 78.7505 28.7031V28.6543H81.5728L81.5825 28.6934C81.7388 29.3184 82.481 29.748 83.7505 29.748C85.2739 29.748 86.1626 29.0352 86.1626 27.7852V25.7832H85.9868C85.3911 26.916 84.2583 27.5312 82.7642 27.5312C80.0591 27.5312 78.3892 25.4414 78.3892 22.3848V22.3652C78.3892 19.2012 80.0591 17.0723 82.813 17.0723C84.2876 17.0723 85.4399 17.7949 86.0161 19.0059H86.1528V17.248H89.0044V27.668C89.0044 30.1875 86.9438 31.7793 83.6919 31.7793ZM83.731 25.3438C85.2739 25.3438 86.1919 24.1426 86.1919 22.375V22.3555C86.1919 20.5879 85.2642 19.3867 83.731 19.3867C82.1978 19.3867 81.3091 20.5879 81.3091 22.3555V22.375C81.3091 24.1426 82.188 25.3438 83.731 25.3438ZM91.4536 28V13.1367H94.3052V28H91.4536ZM101.481 28.2246C98.2095 28.2246 96.2271 26.0859 96.2271 22.6387V22.6289C96.2271 19.2109 98.229 17.0137 101.364 17.0137C104.499 17.0137 106.452 19.1621 106.452 22.4141V23.3027H99.0493C99.0786 25.0703 100.026 26.0957 101.54 26.0957C102.79 26.0957 103.483 25.4316 103.678 25.0215L103.708 24.9629H106.364L106.344 25.0605C106.012 26.4082 104.625 28.2246 101.481 28.2246ZM101.413 19.1523C100.172 19.1523 99.2544 19.9922 99.0786 21.5156H103.717C103.542 19.9531 102.653 19.1523 101.413 19.1523ZM113.225 28V13.9082H119.036C122.004 13.9082 123.987 15.8223 123.987 18.7227V18.7422C123.987 21.6426 122.004 23.5566 119.036 23.5566H116.174V28H113.225ZM118.313 16.2422H116.174V21.252H118.313C120.002 21.252 120.999 20.3535 120.999 18.752V18.7324C120.999 17.1309 120.002 16.2422 118.313 16.2422ZM126.016 28V13.1367H128.868V28H126.016ZM134.247 28.166C132.196 28.166 130.741 26.8965 130.741 24.9434V24.9238C130.741 22.9902 132.235 21.8574 134.911 21.7012L137.508 21.5449V20.6562C137.508 19.7285 136.874 19.2012 135.702 19.2012C134.676 19.2012 134.022 19.5625 133.797 20.1973L133.778 20.2363H131.141L131.151 20.1484C131.375 18.2637 133.153 17.0137 135.858 17.0137C138.709 17.0137 140.321 18.3613 140.321 20.6562V28H137.508V26.5742H137.333C136.786 27.5703 135.653 28.166 134.247 28.166ZM133.524 24.7676C133.524 25.5879 134.217 26.0859 135.204 26.0859C136.522 26.0859 137.508 25.2168 137.508 24.084V23.293L135.34 23.4297C134.12 23.5078 133.524 23.9668 133.524 24.748V24.7676ZM143.6 31.7891C143.268 31.7891 142.907 31.7793 142.575 31.7598V29.6113C142.77 29.6309 143.053 29.6406 143.317 29.6406C144.333 29.6406 144.918 29.25 145.124 28.4102L145.221 28L141.442 17.248H144.577L146.833 25.3926H147.028L149.284 17.248H152.292L148.629 27.9902C147.672 30.832 146.256 31.7891 143.6 31.7891Z" fill="#F5F7FA"/>
<defs>
<filter id="filter0_ii_1406_2058" x="0" y="1" width="27.0005" height="30" filterUnits="userSpaceOnUse" color-interpolation-filters="sRGB">
<feFlood flood-opacity="0" result="BackgroundImageFix"/>
<feBlend mode="normal" in="SourceGraphic" in2="BackgroundImageFix" result="shape"/>
<feColorMatrix in="SourceAlpha" type="matrix" values="0 0 0 0 0 0 0 0 0 0 0 0 0 0 0 0 0 0 127 0" result="hardAlpha"/>
<feOffset dy="-0.15"/>
<feComposite in2="hardAlpha" operator="arithmetic" k2="-1" k3="1"/>
<feColorMatrix type="matrix" values="0 0 0 0 0 0 0 0 0 0 0 0 0 0 0 0 0 0 0.12 0"/>
<feBlend mode="normal" in2="shape" result="effect1_innerShadow_1406_2058"/>
<feColorMatrix in="SourceAlpha" type="matrix" values="0 0 0 0 0 0 0 0 0 0 0 0 0 0 0 0 0 0 127 0" result="hardAlpha"/>
<feOffset dy="0.15"/>
<feComposite in2="hardAlpha" operator="arithmetic" k2="-1" k3="1"/>
<feColorMatrix type="matrix" values="0 0 0 0 1 0 0 0 0 1 0 0 0 0 1 0 0 0 0.25 0"/>
<feBlend mode="normal" in2="effect1_innerShadow_1406_2058" result="effect2_innerShadow_1406_2058"/>
</filter>
<filter id="filter1_i_1406_2058" x="0.541504" y="15.9995" width="19.5117" height="15.0005" filterUnits="userSpaceOnUse" color-interpolation-filters="sRGB">
<feFlood flood-opacity="0" result="BackgroundImageFix"/>
<feBlend mode="normal" in="SourceGraphic" in2="BackgroundImageFix" result="shape"/>
<feColorMatrix in="SourceAlpha" type="matrix" values="0 0 0 0 0 0 0 0 0 0 0 0 0 0 0 0 0 0 127 0" result="hardAlpha"/>
<feOffset dy="-0.15"/>
<feComposite in2="hardAlpha" operator="arithmetic" k2="-1" k3="1"/>
<feColorMatrix type="matrix" values="0 0 0 0 0 0 0 0 0 0 0 0 0 0 0 0 0 0 0.08 0"/>
<feBlend mode="normal" in2="shape" result="effect1_innerShadow_1406_2058"/>
</filter>
<linearGradient id="paint0_linear_1406_2058" x1="13.8309" y1="2.8289" x2="-5.74316" y2="22.4529" gradientUnits="userSpaceOnUse">
<stop stop-color="#00A0FF"/>
<stop offset="0.0066" stop-color="#00A1FF"/>
<stop offset="0.2601" stop-color="#00BEFF"/>
<stop offset="0.5122" stop-color="#00D2FF"/>
<stop offset="0.7604" stop-color="#00DFFF"/>
<stop offset="1" stop-color="#00E3FF"/>
</linearGradient>
<linearGradient id="paint1_linear_1406_2058" x1="27.902" y1="15.9996" x2="-0.39151" y2="15.9996" gradientUnits="userSpaceOnUse">
<stop stop-color="#FFE000"/>
<stop offset="0.4087" stop-color="#FFBD00"/>
<stop offset="0.7754" stop-color="#FFA500"/>
<stop offset="1" stop-color="#FF9C00"/>
</linearGradient>
<linearGradient id="paint2_linear_1406_2058" x1="17.3709" y1="18.6751" x2="-9.17389" y2="45.2877" gradientUnits="userSpaceOnUse">
<stop stop-color="#FF3A44"/>
<stop offset="1" stop-color="#C31162"/>
</linearGradient>
<linearGradient id="paint3_linear_1406_2058" x1="-3.12862" y1="-7.12277" x2="8.72438" y2="4.76049" gradientUnits="userSpaceOnUse">
<stop stop-color="#32A071"/>
<stop offset="0.0685" stop-color="#2DA771"/>
<stop offset="0.4762" stop-color="#15CF74"/>
<stop offset="0.8009" stop-color="#06E775"/>
<stop offset="1" stop-color="#00F076"/>
</linearGradient>
</defs>
</svg>
