<svg width="20" height="20" viewBox="0 0 20 20" fill="none" xmlns="http://www.w3.org/2000/svg">
<path d="M15.0001 6.6665C15.0001 3.90817 12.7584 1.6665 10.0001 1.6665C7.24175 1.6665 5.00008 3.90817 5.00008 6.6665C5.00008 10.4165 10.0001 15.8332 10.0001 15.8332C10.0001 15.8332 15.0001 10.4165 15.0001 6.6665ZM8.33341 6.6665C8.33341 5.74984 9.08341 4.99984 10.0001 4.99984C10.9167 4.99984 11.6667 5.74984 11.6667 6.6665C11.6667 7.58317 10.9251 8.33317 10.0001 8.33317C9.08341 8.33317 8.33341 7.58317 8.33341 6.6665ZM4.16675 16.6665V18.3332H15.8334V16.6665H4.16675Z" fill="#E01D0D"/>
</svg>
