<svg width="24" height="25" viewBox="0 0 24 25" fill="none" xmlns="http://www.w3.org/2000/svg">
<rect y="0.5" width="24" height="24" rx="12" fill="#00A67E"/>
<mask id="mask0_874_5850" style="mask-type:alpha" maskUnits="userSpaceOnUse" x="4" y="4" width="20" height="21">
<rect x="4" y="4.5" width="20" height="20" fill="#D9D9D9"/>
</mask>
<g mask="url(#mask0_874_5850)">
<path d="M10.25 16.4821C10.1548 16.4821 10.0655 16.4673 9.98218 16.4375C9.89885 16.4077 9.82147 16.3571 9.75004 16.2857L6.67861 13.2143C6.54766 13.0833 6.48516 12.9137 6.49111 12.7054C6.49706 12.497 6.56552 12.3274 6.69647 12.1964C6.82742 12.0655 6.99409 12 7.19647 12C7.39885 12 7.56552 12.0655 7.69647 12.1964L10.25 14.75L16.3036 8.69643C16.4346 8.56548 16.6042 8.5 16.8125 8.5C17.0209 8.5 17.1905 8.56548 17.3215 8.69643C17.4524 8.82738 17.5179 8.99702 17.5179 9.20536C17.5179 9.41369 17.4524 9.58333 17.3215 9.71429L10.75 16.2857C10.6786 16.3571 10.6012 16.4077 10.5179 16.4375C10.4346 16.4673 10.3453 16.4821 10.25 16.4821Z" fill="#F5F7FA"/>
</g>
</svg>
