<svg width="56" height="56" viewBox="0 0 56 56" fill="none" xmlns="http://www.w3.org/2000/svg">
<path d="M38.6667 20.0001H34.6667V17.3334C34.6667 15.8534 33.4801 14.6667 32.0001 14.6667H24.0001C22.5201 14.6667 21.3334 15.8534 21.3334 17.3334V20.0001H17.3334C15.8534 20.0001 14.6667 21.1867 14.6667 22.6667V37.3334C14.6667 38.8134 15.8534 40.0001 17.3334 40.0001H38.6667C40.1467 40.0001 41.3334 38.8134 41.3334 37.3334V22.6667C41.3334 21.1867 40.1467 20.0001 38.6667 20.0001ZM24.0001 17.3334H32.0001V20.0001H24.0001V17.3334ZM38.6667 37.3334H17.3334V34.6667H38.6667V37.3334ZM38.6667 30.6667H17.3334V22.6667H21.3334V25.3334H24.0001V22.6667H32.0001V25.3334H34.6667V22.6667H38.6667V30.6667Z" fill="#00A67E"/>
<rect x="0.5" y="0.5" width="55" height="55" rx="27.5" stroke="#AFBCC9" stroke-opacity="0.3"/>
</svg>
